<svg xmlns="http://www.w3.org/2000/svg" xmlns:xlink="http://www.w3.org/1999/xlink" viewBox="0 0 612.9 630.85"><defs><style>.cls-1{isolation:isolate;}.cls-2{fill:url(#Degradado_sin_nombre_8);}.cls-3,.cls-4,.cls-7,.cls-8,.cls-9{opacity:0.46;mix-blend-mode:multiply;}.cls-3{fill:url(#Degradado_sin_nombre_23);}.cls-4{fill:url(#Degradado_sin_nombre_23-2);}.cls-5{fill:url(#Degradado_sin_nombre_8-2);}.cls-6{mix-blend-mode:soft-light;fill:url(#Degradado_sin_nombre_32);}.cls-7{fill:url(#Degradado_sin_nombre_23-3);}.cls-8{fill:url(#Degradado_sin_nombre_23-4);}.cls-9{fill:url(#Degradado_sin_nombre_23-5);}</style><linearGradient id="Degradado_sin_nombre_8" x1="444.31" y1="397.52" x2="574.35" y2="805.2" gradientUnits="userSpaceOnUse"><stop offset="0" stop-color="#bd69aa"/><stop offset="1" stop-color="#7981bf"/></linearGradient><linearGradient id="Degradado_sin_nombre_23" x1="192.61" y1="200.35" x2="145.78" y2="260.21" gradientUnits="userSpaceOnUse"><stop offset="0" stop-color="#0e1239"/><stop offset="1" stop-color="#0e1239" stop-opacity="0"/></linearGradient><linearGradient id="Degradado_sin_nombre_23-2" x1="433.43" y1="198.8" x2="463.66" y2="265.18" xlink:href="#Degradado_sin_nombre_23"/><linearGradient id="Degradado_sin_nombre_8-2" x1="434.97" y1="211.2" x2="560.04" y2="696.06" xlink:href="#Degradado_sin_nombre_8"/><linearGradient id="Degradado_sin_nombre_32" x1="306.45" y1="329.98" x2="306.45" y2="8.35" gradientUnits="userSpaceOnUse"><stop offset="0" stop-color="#fff" stop-opacity="0"/><stop offset="1" stop-color="#fff"/></linearGradient><linearGradient id="Degradado_sin_nombre_23-3" x1="305.59" y1="558.78" x2="309.58" y2="405.29" xlink:href="#Degradado_sin_nombre_23"/><linearGradient id="Degradado_sin_nombre_23-4" x1="183.47" y1="439.6" x2="236.58" y2="781.83" xlink:href="#Degradado_sin_nombre_23"/><linearGradient id="Degradado_sin_nombre_23-5" x1="769.74" y1="421.94" x2="771.21" y2="739.09" xlink:href="#Degradado_sin_nombre_23"/></defs><title>Wibble</title><g class="cls-1"><g id="Layer_1" data-name="Layer 1"><path class="cls-2" d="M683,364.58V772.75c0,36-42,55.79-69.73,32.82L500,711.74l-113.2,93.83c-27.74,23-69.73,3.23-69.73-32.82V364.58H389V710.3l111-92,111,92V364.58Z" transform="translate(-193.55 -184.57)"/><polygon class="cls-3" points="195.43 212.02 195.43 305.44 123.5 245.82 123.5 180.01 156.81 180.01 195.43 212.02"/><polygon class="cls-4" points="489.4 180.01 489.4 245.82 417.47 305.44 417.47 212.02 456.09 180.01 489.4 180.01"/><path class="cls-5" d="M806.45,184.57V737.41a36,36,0,1,1-71.93,0V337.61L500,531.91l-234.5-194.3v399.8a36,36,0,1,1-71.93,0V184.57L500,438.54Z" transform="translate(-193.55 -184.57)"/><polygon class="cls-6" points="612.9 0 306.43 347.34 0 0 306.43 253.96 612.9 0"/><polygon class="cls-7" points="195.43 525.73 306.45 492.24 417.47 525.73 306.43 433.75 195.43 525.73"/><path class="cls-8" d="M193.55,427.3l71.93,305.12v5a36,36,0,1,1-71.93,0Z" transform="translate(-193.55 -184.57)"/><path class="cls-9" d="M806.45,427.3V737.41a36,36,0,1,1-71.93,0v-21.8Z" transform="translate(-193.55 -184.57)"/></g></g></svg>