<?xml version="1.0" encoding="utf-8"?><svg xmlns="http://www.w3.org/2000/svg" xmlns:xlink="http://www.w3.org/1999/xlink" width="1536" height="722" preserveAspectRatio="xMidYMid" viewBox="0 0 1536 722" style="z-index:1;margin-right:-1.6px;display:block;background-repeat-y:initial;background-repeat-x:initial;background-color:rgb(241, 242, 243);animation-play-state:paused" ><g transform="translate(768,361) scale(1,1) translate(-768,-361)" style="transform:matrix(1, 0, 0, 1, 0, 0);animation-play-state:paused" ><linearGradient id="lg-0.568970693816722" x1="0" x2="1" y1="0" y2="0" style="animation-play-state:paused" ><stop stop-color="#5e64d5" offset="0" style="animation-play-state:paused" ></stop>

  
<stop stop-color="#8b90f8" offset="1" style="animation-play-state:paused" ></stop></linearGradient>
<path d="M 0 0 L 0 680.622 Q 153.6 579.625 307.2 553.142 T 614.4 568.971 T 921.6 489.243 T 1228.8 295.208 T 1536 245.864 L 1536 0 Z" fill="url(#lg-0.568970693816722)" opacity="0.4" style="opacity:0.4;animation-play-state:paused" ></path>
<path d="M 0 0 L 0 617.188 Q 153.6 598.245 307.2 566.061 T 614.4 535.349 T 921.6 376.047 T 1228.8 430.281 T 1536 355.601 L 1536 0 Z" fill="url(#lg-0.568970693816722)" opacity="0.4" style="opacity:0.4;animation-play-state:paused" ></path>
<path d="M 0 0 L 0 656.917 Q 153.6 588.159 307.2 561.115 T 614.4 451.277 T 921.6 432.604 T 1228.8 339.454 T 1536 339.079 L 1536 0 Z" fill="url(#lg-0.568970693816722)" opacity="0.4" style="opacity:0.4;animation-play-state:paused" ></path></g></svg>