<?xml version="1.0" encoding="utf-8"?><svg xmlns="http://www.w3.org/2000/svg" xmlns:xlink="http://www.w3.org/1999/xlink" width="1536" height="722" preserveAspectRatio="xMidYMid" viewBox="0 0 1536 722" style="z-index:1;margin-right:-1.6px;display:block;background-repeat-y:initial;background-repeat-x:initial;background-color:rgb(241, 242, 243);animation-play-state:paused" ><g transform="translate(768,361) scale(1,1) translate(-768,-361)" style="transform:matrix(1, 0, 0, 1, 0, 0);animation-play-state:paused" ><linearGradient id="lg-0.8586335413340735" x1="0" x2="1" y1="0" y2="0" style="animation-play-state:paused" ><stop stop-color="#645cbb" offset="0" style="animation-play-state:paused" ></stop>

  
<stop stop-color="#a084dc" offset="1" style="animation-play-state:paused" ></stop></linearGradient>
<path d="M 0 0 L 0 629.893 Q 153.6 659.421 307.2 623.226 T 614.4 540.546 T 921.6 439.098 T 1228.8 331.303 T 1536 345.784 L 1536 0 Z" fill="url(#lg-0.8586335413340735)" opacity="0.4" style="opacity:0.4;animation-play-state:paused" ></path>
<path d="M 0 0 L 0 700.838 Q 153.6 620.111 307.2 595.427 T 614.4 539.243 T 921.6 398.809 T 1228.8 351.044 T 1536 253.325 L 1536 0 Z" fill="url(#lg-0.8586335413340735)" opacity="0.4" style="opacity:0.4;animation-play-state:paused" ></path>
<path d="M 0 0 L 0 679.35 Q 153.6 577.194 307.2 538.41 T 614.4 557.475 T 921.6 424.011 T 1228.8 454.692 T 1536 317.984 L 1536 0 Z" fill="url(#lg-0.8586335413340735)" opacity="0.4" style="opacity:0.4;animation-play-state:paused" ></path></g></svg>